<svg xmlns="http://www.w3.org/2000/svg" xmlns:svg="http://www.w3.org/2000/svg" id="svg2" width="430.28" height="116.603" version="1.1"><metadata id="metadata44"/><line id="line6" x1="15" x2="55" y1="58.301" y2="58.301" style="stroke:#999;stroke-width:2.5"/><line id="line8" x1="195" x2="155" y1="58.301" y2="58.301" style="stroke:#999;stroke-width:2.5"/><line id="line10" x1="155" x2="130" y1="58.301" y2="15" style="stroke:#999;stroke-width:2.5"/><line id="line12" x1="155" x2="80" y1="58.301" y2="15" style="stroke:#999;stroke-width:2.5"/><line id="line14" x1="155" x2="80" y1="58.301" y2="101.603" style="stroke:#999;stroke-width:2.5"/><line id="line16" x1="155" x2="130" y1="58.301" y2="101.603" style="stroke:#999;stroke-width:2.5"/><line id="line18" x1="130" x2="55" y1="15" y2="58.301" style="stroke:#999;stroke-width:2.5"/><line id="line20" x1="80" x2="55" y1="15" y2="58.301" style="stroke:#999;stroke-width:2.5"/><line id="line22" x1="55" x2="80" y1="58.301" y2="101.603" style="stroke:#999;stroke-width:2.5"/><line id="line24" x1="55" x2="130" y1="58.301" y2="101.603" style="stroke:#999;stroke-width:2.5"/><circle id="circle26" cx="155" cy="65" r="15" transform="translate(0,-6.6987305)" style="fill:#4285f4"/><circle id="circle28" cx="130" cy="21.699" r="15" transform="translate(0,-6.6987305)" style="fill:#db4437"/><circle id="circle30" cx="80" cy="21.699" r="15" transform="translate(0,-6.6987305)" style="fill:#f4b400"/><circle id="circle32" cx="55" cy="65" r="15" transform="translate(0,-6.6987305)" style="fill:#4285f4"/><circle id="circle34" cx="80" cy="108.301" r="15" transform="translate(0,-6.6987305)" style="fill:#db4437"/><circle id="circle36" cx="130" cy="108.301" r="15" transform="translate(0,-6.6987305)" style="fill:#f4b400"/><circle id="circle38" cx="15" cy="65" r="15" transform="translate(0,-6.6987305)" style="fill:#999"/><circle id="circle40" cx="195" cy="65" r="15" transform="translate(0,-6.6987305)" style="fill:#999"/><flowRoot id="flowRoot3025" xml:space="preserve" style="font-size:72px;font-style:normal;font-variant:normal;font-weight:400;font-stretch:normal;line-height:125%;letter-spacing:0;word-spacing:0;fill:#000;fill-opacity:1;stroke:none;font-family:Open Sans;-inkscape-font-specification:Open Sans"><flowRegion id="flowRegion3027"><rect id="rect3029" width="305.063" height="118.241" x="220.717" y="-.062" style="font-size:72px"/></flowRegion><flowPara id="flowPara3031"/></flowRoot><text style="font-size:100px;font-style:normal;font-variant:normal;font-weight:400;font-stretch:normal;line-height:125%;letter-spacing:0;word-spacing:0;fill:#000;fill-opacity:1;stroke:none;font-family:Open Sans;-inkscape-font-specification:Open Sans" id="text3033" x="224.534" y="78.02" xml:space="preserve"><tspan id="tspan3035" x="224.534" y="78.02" style="font-size:72px;font-style:normal;font-variant:normal;font-weight:300;font-stretch:normal;text-align:start;line-height:125%;writing-mode:lr-tb;text-anchor:start;font-family:Open Sans Light;-inkscape-font-specification:'Open Sans Light, Light'">Cayley</tspan></text></svg>