<svg xmlns="http://www.w3.org/2000/svg" xmlns:ev="http://www.w3.org/2001/xml-events" xmlns:xlink="http://www.w3.org/1999/xlink" width="100%" height="100%" baseProfile="full" version="1.1"><line x1="15" x2="55" y1="65" y2="65" stroke="#999" stroke-width="2.5"/><line x1="195" x2="155" y1="65" y2="65" stroke="#999" stroke-width="2.5"/><line x1="155" x2="130" y1="65" y2="21.699" stroke="#999" stroke-width="2.5"/><line x1="155" x2="80" y1="65" y2="21.699" stroke="#999" stroke-width="2.5"/><line x1="155" x2="80" y1="65" y2="108.301" stroke="#999" stroke-width="2.5"/><line x1="155" x2="130" y1="65" y2="108.301" stroke="#999" stroke-width="2.5"/><line x1="130" x2="55" y1="21.699" y2="65" stroke="#999" stroke-width="2.5"/><line x1="80" x2="55" y1="21.699" y2="65" stroke="#999" stroke-width="2.5"/><line x1="55" x2="80" y1="65" y2="108.301" stroke="#999" stroke-width="2.5"/><line x1="55" x2="130" y1="65" y2="108.301" stroke="#999" stroke-width="2.5"/><circle cx="155" cy="65" r="15" fill="#4285F4"/><circle cx="130" cy="21.699" r="15" fill="#DB4437"/><circle cx="80" cy="21.699" r="15" fill="#F4B400"/><circle cx="55" cy="65" r="15" fill="#4285F4"/><circle cx="80" cy="108.301" r="15" fill="#DB4437"/><circle cx="130" cy="108.301" r="15" fill="#F4B400"/><circle cx="15" cy="65" r="15" fill="#999"/><circle cx="195" cy="65" r="15" fill="#999"/></svg>